<?xml version="1.0" encoding="UTF-8" standalone="no"?>
<svg
   xmlns:dc="http://purl.org/dc/elements/1.1/"
   xmlns:cc="http://creativecommons.org/ns#"
   xmlns:rdf="http://www.w3.org/1999/02/22-rdf-syntax-ns#"
   xmlns:svg="http://www.w3.org/2000/svg"
   xmlns="http://www.w3.org/2000/svg"
   xmlns:sodipodi="http://sodipodi.sourceforge.net/DTD/sodipodi-0.dtd"
   xmlns:inkscape="http://www.inkscape.org/namespaces/inkscape"
   version="1.1"
   id="Capa_1"
   x="0px"
   y="0px"
   viewBox="0 0 296.477 296.477"
   style="enable-background:new 0 0 296.477 296.477;"
   xml:space="preserve"
   sodipodi:docname="blueSpadesAvatar.svg"
   inkscape:version="1.0.1 (0767f8302a, 2020-10-17)"
   inkscape:export-filename="/home/alex/Desktop/DBR/public/dbrAvatarIcons/blueSpadesAvatar.png"
   inkscape:export-xdpi="96"
   inkscape:export-ydpi="96"><metadata
   id="metadata210"><rdf:RDF><cc:Work
       rdf:about=""><dc:format>image/svg+xml</dc:format><dc:type
         rdf:resource="http://purl.org/dc/dcmitype/StillImage" /><dc:title></dc:title></cc:Work></rdf:RDF></metadata><defs
   id="defs208" /><sodipodi:namedview
   pagecolor="#ffffff"
   bordercolor="#666666"
   borderopacity="1"
   objecttolerance="10"
   gridtolerance="10"
   guidetolerance="10"
   inkscape:pageopacity="0"
   inkscape:pageshadow="2"
   inkscape:window-width="1366"
   inkscape:window-height="712"
   id="namedview206"
   showgrid="false"
   inkscape:zoom="1.838254"
   inkscape:cx="96.095678"
   inkscape:cy="157.66564"
   inkscape:window-x="0"
   inkscape:window-y="32"
   inkscape:window-maximized="1"
   inkscape:current-layer="Capa_1"
   inkscape:document-rotation="0" />
<g
   id="g173">
	<path
   d="M244.63,35.621c-21.771-18.635-47.382-29.855-73.767-33.902C121.871-5.797,70.223,11.421,35.622,51.847   c-53.236,62.198-45.972,155.773,16.226,209.01c21.771,18.634,47.381,29.853,73.766,33.901   c48.991,7.517,100.641-9.703,135.241-50.13C314.091,182.431,306.826,88.856,244.63,35.621z M273.361,191.241l-45.305-15.618   c6.102-17.803,6.028-37.107,0.014-54.724l45.257-15.575c3.577,10.453,5.862,21.429,6.74,32.741   C281.489,156.374,279.152,174.388,273.361,191.241z M275.905,104.058c0-0.003,0-0.005,0-0.008   C275.905,104.053,275.905,104.055,275.905,104.058z M247.935,61.472l-36.069,31.332c-2.669-3.055-5.579-5.961-8.752-8.677   c-11.467-9.814-24.81-15.995-38.637-18.692l9.095-46.741c22.33,4.33,43.21,14.294,60.635,29.209   C239.147,52.131,243.728,56.669,247.935,61.472z M103.251,23.983c6.428-2.315,13.021-4.109,19.71-5.388l9.087,46.843   c-17.789,3.467-34.584,12.651-47.393,27.341L48.55,61.38C63.334,44.416,82.206,31.568,103.251,23.983z M23.124,105.236   l45.297,15.617c-6.102,17.803-6.028,37.105-0.015,54.723l-45.295,15.588c-3.562-10.441-5.837-21.4-6.713-32.688   C14.976,140.151,17.32,122.11,23.124,105.236z M48.467,235.066l36.145-31.395c2.669,3.056,5.58,5.964,8.754,8.68   c11.466,9.814,24.808,15.993,38.634,18.691l-9.143,46.997c-22.325-4.348-43.185-14.422-60.604-29.333   C57.288,244.458,52.689,239.898,48.467,235.066z M193.203,272.635c-6.409,2.309-12.986,4.11-19.658,5.403l-9.117-47   c17.789-3.467,34.585-12.651,47.394-27.342l36.121,31.409C233.154,252.087,214.257,265.047,193.203,272.635z"
   id="path159" />
	<circle
   cx="93.372"
   cy="53.498"
   r="8"
   id="circle161" />
	<circle
   cx="38.758"
   cy="148.382"
   r="8"
   id="circle163" />
	<circle
   cx="93.623"
   cy="243.123"
   r="8"
   id="circle165" />
	<circle
   cx="203.105"
   cy="242.977"
   r="8.001"
   id="circle167" />
	<circle
   cx="257.717"
   cy="148.091"
   r="8"
   id="circle169" />
	<circle
   cx="202.853"
   cy="53.351"
   r="8"
   id="circle171" />
</g>
<g
   id="g175">
</g>
<g
   id="g177">
</g>
<g
   id="g179">
</g>
<g
   id="g181">
</g>
<g
   id="g183">
</g>
<g
   id="g185">
</g>
<g
   id="g187">
</g>
<g
   id="g189">
</g>
<g
   id="g191">
</g>
<g
   id="g193">
</g>
<g
   id="g195">
</g>
<g
   id="g197">
</g>
<g
   id="g199">
</g>
<g
   id="g201">
</g>
<g
   id="g203">
</g>
<path
   style="fill:#000080;stroke-width:10.2802;paint-order:markers fill stroke"
   d="m 137.52217,295.88974 c -1.04719,-0.12145 -4.22956,-0.48639 -7.07193,-0.81097 C 75.063933,288.75397 26.575612,249.47003 8.3710471,196.17348 5.6592901,188.23441 3.0408498,177.62966 1.7744831,169.45724 0.56519059,161.65314 0.11956505,142.50151 0.95672871,134.31265 4.6420527,98.263993 19.888707,66.80743 45.828945,41.733273 68.834642,19.495681 97.221612,5.9250113 130.45024,1.2792299 c 8.61375,-1.20431019 29.62529,-0.90732085 39.08904,0.5525071 51.10299,7.8828769 93.37024,40.075677 114.01885,86.842324 14.10979,31.956999 16.42209,67.565759 6.57618,101.271389 -16.06324,54.98954 -63.22366,96.00482 -120.31577,104.63827 -7.19457,1.08796 -27.20089,1.89699 -32.29637,1.30602 z m -9.85554,-40.98975 c 2.48811,-12.84587 4.37979,-23.58921 4.20373,-23.87408 -0.17606,-0.28487 -1.24081,-0.67988 -2.3661,-0.8778 -3.3235,-0.58454 -12.05161,-3.57759 -16.73384,-5.73839 -8.70617,-4.0178 -15.647946,-8.87942 -23.391762,-16.38226 l -4.89595,-4.74359 -18.087816,15.74739 c -9.948299,8.66106 -18.087817,15.94042 -18.087817,16.17635 0,0.23592 3.243567,3.61299 7.207927,7.5046 17.040502,16.72777 36.57381,27.77742 59.975388,33.92703 3.29117,0.86487 6.35935,1.58248 6.81817,1.5947 0.66908,0.0178 1.72983,-4.60168 5.35807,-23.33395 z m 54.03169,21.50063 c 18.04149,-4.62934 35.56302,-13.4675 50.26399,-25.35404 5.33527,-4.31385 16.00204,-14.9264 15.95839,-15.87727 -0.0385,-0.83904 -34.83896,-31.09315 -36.04559,-31.33659 -0.45845,-0.0925 -1.40237,0.60632 -2.0976,1.55292 -1.95929,2.66769 -9.45162,9.02729 -14.86392,12.61671 -8.24477,5.4679 -16.45755,9.1912 -25.36127,11.49764 -2.65969,0.68897 -4.95718,1.37405 -5.10553,1.5224 -0.2273,0.2273 8.0795,44.54422 8.72608,46.55375 0.29906,0.92948 0.34829,0.92269 8.52545,-1.17552 z m -135.704831,-92.786 c 12.128422,-4.18132 22.165914,-7.71664 22.305536,-7.85626 0.139627,-0.13963 -0.398047,-2.72542 -1.194819,-5.74622 -1.777214,-6.73788 -3.000048,-15.61174 -3.000048,-21.77068 0,-6.15895 1.222834,-15.03281 3.000048,-21.77069 0.796772,-3.0208 1.305037,-5.636 1.129469,-5.81156 -0.437241,-0.43724 -43.904847,-15.39332 -44.738382,-15.39332 -1.316199,0 -4.848913,13.20126 -6.550886,24.47975 -1.17593,7.79256 -1.325747,27.20016 -0.268759,34.81565 1.538578,11.08529 5.441984,26.65573 6.682413,26.65573 0.321065,0 10.507007,-3.42108 22.635428,-7.6024 z m 228.455541,5.15442 c 6.30177,-18.0453 7.90077,-44.56389 3.93456,-65.25255 -1.43948,-7.5087 -4.33804,-17.74813 -5.10771,-18.04348 -0.52542,-0.20162 -44.7409,14.67766 -45.31127,15.24804 -0.097,0.097 0.43166,2.27471 1.17486,4.83932 4.01473,13.854 4.01473,31.50817 0,45.36217 -0.7432,2.56461 -1.26107,4.75311 -1.15084,4.86334 0.57184,0.57185 43.78341,15.32424 44.66434,15.24838 0.68369,-0.0589 1.29466,-0.82945 1.79606,-2.26522 z M 230.52171,77.050346 c 9.43764,-8.188227 17.23033,-15.183762 17.31709,-15.545638 0.20459,-0.853375 -8.62438,-9.816894 -14.64161,-14.864742 -10.31448,-8.652802 -26.52178,-18.051728 -38.5556,-22.359137 -5.03944,-1.803827 -12.46584,-3.964302 -17.81747,-5.183428 -3.34128,-0.761158 -3.40658,-0.754042 -3.68177,0.401224 -1.16006,4.869906 -8.86652,45.774034 -8.68063,46.074798 0.12983,0.210079 1.28188,0.548085 2.56009,0.751125 6.89893,1.095894 19.73297,6.625184 27.61148,11.895854 5.28814,3.537727 12.6161,9.723749 15.07844,12.728709 1.64689,2.009809 2.0649,2.260618 2.79366,1.676183 0.47134,-0.377994 8.57869,-7.386721 18.01632,-15.574948 z M 88.578383,89.168372 c 6.729434,-6.854455 15.569217,-13.10506 24.192037,-17.106173 4.51764,-2.09625 13.15304,-5.037639 16.77126,-5.712621 1.14588,-0.213769 2.20611,-0.708396 2.35607,-1.099179 0.22484,-0.585948 -8.3521,-46.426389 -8.77534,-46.900784 -0.0732,-0.08204 -2.30993,0.357798 -4.97053,0.977412 -24.744165,5.762545 -46.292107,17.848322 -64.390292,36.115129 -5.239644,5.288459 -5.626944,5.820894 -4.820692,6.627142 2.764634,2.764635 35.092146,30.639565 35.557528,30.660068 0.307841,0.01355 2.143822,-1.588889 4.079959,-3.560994 z"
   id="path270" /><path
   style="fill:#000080;stroke-width:10.2802;paint-order:markers fill stroke"
   d="m 34.872769,154.79333 c -3.654605,-2.22836 -4.722245,-5.74969 -2.890499,-9.53357 1.301941,-2.68946 4.174542,-4.63423 6.845161,-4.63423 2.062013,0 5.329335,1.99354 6.49134,3.96066 3.894896,6.59353 -3.892627,14.20298 -10.446002,10.20714 z"
   id="path272" /><path
   style="fill:#000080;stroke-width:10.2802;paint-order:markers fill stroke"
   d="m 91.47391,250.46767 c -2.249319,-0.6589 -4.938687,-3.77825 -5.40626,-6.27062 -0.577678,-3.07929 1.219466,-6.2893 4.376812,-7.81775 3.354461,-1.62387 5.793359,-1.16749 8.56322,1.60237 1.802698,1.80269 2.066858,2.39136 2.066858,4.60584 0,1.39645 -0.3635,3.24193 -0.80778,4.10107 -1.603843,3.10149 -5.455235,4.75678 -8.79285,3.77909 z"
   id="path274" /><path
   style="fill:#000080;stroke-width:10.2802;paint-order:markers fill stroke"
   d="m 89.922653,60.190205 c -2.702932,-1.669586 -3.677824,-3.154059 -3.953156,-6.019493 -0.485853,-5.056371 3.220791,-8.638867 8.341106,-8.061734 2.136929,0.240863 2.987399,0.67018 4.41624,2.229315 2.046897,2.233551 2.607307,3.965697 2.121277,6.556499 -0.937643,4.998044 -6.803854,7.841311 -10.925467,5.295413 z"
   id="path276" /><path
   style="fill:#000080;stroke-width:10.2802;paint-order:markers fill stroke"
   d="m 199.71595,60.174291 c -6.87336,-3.200388 -5.52238,-12.581841 2.08522,-14.480229 2.12581,-0.530471 6.16155,1.424822 7.51173,3.639391 3.9259,6.43929 -2.78038,14.01479 -9.59695,10.840838 z"
   id="path278" /><path
   style="fill:#000080;stroke-width:10.2802;paint-order:markers fill stroke"
   d=""
   id="path280" /><path
   style="fill:#000080;stroke-width:10.2802;paint-order:markers fill stroke"
   d="m 199.24226,249.49894 c -3.66213,-2.23324 -4.79753,-6.14048 -2.85042,-9.80911 2.23177,-4.20498 7.2308,-5.591 11.07666,-3.0711 1.95438,1.28056 3.68706,5.34436 3.25672,7.63826 -0.95446,5.08771 -7.12028,7.9024 -11.48296,5.24195 z"
   id="path282" /><path
   style="fill:#000080;stroke-width:10.2802;paint-order:markers fill stroke"
   d="m 254.49183,154.93387 c -7.18981,-3.72367 -4.78329,-14.30834 3.25312,-14.30834 5.85303,0 9.54661,6.34682 6.55187,11.25833 -2.14362,3.51563 -6.36844,4.82984 -9.80499,3.05001 z"
   id="path284" /><g
   id="g1145"
   transform="matrix(2.142836,0,0,2.071117,86.162755,88.240048)"
   style="fill:#ffffff"><path
     style="fill:#ffffff"
     d="M 54.822,24.938 C 51.086,18.334 43.441,8.828 29.154,0.051 29.042,-0.018 28.896,-0.018 28.785,0.051 14.5,8.828 6.853,18.045 3.116,24.649 -1.279,32.416 1.227,41.8 9.22,45.768 c 2.084,1.034 3.599,1.17 5.396,1.17 0,0 0.44,-0.015 1.164,-0.123 3.212,-0.48 6.165,-2.041 8.45,-4.349 l 0.325,-0.328 c 0.475,-0.48 1.29,-0.103 1.227,0.57 -0.339,3.645 -0.998,9.113 -3.787,12.591 -0.855,1.066 -0.155,2.64 1.212,2.64 h 11.534 c 1.363,0 2.058,-1.57 1.204,-2.633 -2.824,-3.516 -3.462,-9.069 -3.807,-12.715 -0.054,-0.569 0.648,-0.876 1.033,-0.453 v 0 c 1.992,2.194 4.562,3.806 7.428,4.56 1.595,0.42 2.721,0.53 2.721,0.53 1.797,0 3.313,-0.136 5.396,-1.17 7.995,-3.969 10.501,-13.353 6.106,-21.12 z"
     id="path1143" /></g><path
   style="fill:#ffffff;fill-opacity:1;stroke-width:10.2802;paint-order:markers fill stroke"
   d="m 22.145364,187.14373 c -1.936431,-6.51686 -3.777929,-14.92906 -4.726257,-21.59017 -1.270081,-8.92111 -1.275855,-26.00361 -0.01177,-34.81565 0.997602,-6.95435 3.467781,-17.8024 5.084539,-22.32928 l 0.98054,-2.74549 22.031775,7.59024 c 12.117477,4.17463 22.129813,7.67051 22.249635,7.76863 0.119822,0.0981 -0.303236,1.95713 -0.940129,4.13115 -4.392488,14.99367 -4.125074,32.59973 0.746934,49.17702 0.314157,1.06893 -0.232438,1.35456 -6.913697,3.61281 -3.990153,1.34866 -14.042092,4.78919 -22.337643,7.6456 l -15.082821,5.19349 z m 20.633784,-31.57537 c 2.083491,-1.11739 4.357028,-4.83315 4.357028,-7.12092 0,-0.78714 -0.550795,-2.52342 -1.223988,-3.8584 -1.590238,-3.15354 -4.029495,-4.46517 -7.789842,-4.18873 -4.643941,0.3414 -7.515233,3.45315 -7.515233,8.1446 0,6.04482 6.742498,9.93534 12.172035,7.02345 z"
   id="path710" /><path
   style="fill:#ffffff;fill-opacity:1;stroke-width:10.2802;paint-order:markers fill stroke"
   d="M 66.719977,76.805003 C 57.295272,68.573091 49.504094,61.61678 49.406246,61.346536 49.13343,60.593053 59.829041,50.152254 65.631988,45.507357 c 10.603345,-8.487319 24.253584,-16.23428 36.719622,-20.8396 5.45421,-2.014944 19.81738,-5.940452 20.22914,-5.528697 0.24649,0.24649 8.86927,44.316764 8.8725,45.34656 0.001,0.362464 -1.03832,0.916751 -2.30991,1.231748 -15.51983,3.844574 -29.370798,11.467577 -40.131626,22.086795 -2.250596,2.220982 -4.331375,4.022355 -4.623953,4.003054 -0.292577,-0.01931 -8.24308,-6.7703 -17.667784,-15.002214 z M 97.176801,60.685068 c 7.558949,-3.997269 4.751479,-15.291516 -3.801096,-15.291516 -8.552572,0 -11.360045,11.294247 -3.801096,15.291516 1.28713,0.68065 2.997623,1.237546 3.801096,1.237546 0.803474,0 2.513967,-0.556896 3.801096,-1.237546 z"
   id="path712" /><path
   style="fill:#ffffff;fill-opacity:1;stroke-width:10.2802;paint-order:markers fill stroke"
   d="M 207.26992,87.559681 C 196.51039,77.249696 184.08071,70.172976 170.32999,66.528275 c -3.37091,-0.893477 -5.52025,-1.727136 -5.39682,-2.093252 0.11282,-0.334635 2.05972,-10.27793 4.32644,-22.096209 2.26672,-11.81828 4.29635,-21.89858 4.51029,-22.400667 0.35412,-0.831056 1.0229,-0.751863 7.46091,0.883468 17.9995,4.572087 35.47342,13.363402 50.04749,25.179431 6.97655,5.656279 16.46113,15.195042 15.75716,15.847165 -3.66937,3.399106 -34.68663,29.98843 -34.964,29.972649 -0.20733,-0.0118 -2.36802,-1.929331 -4.80154,-4.261179 z m -0.004,-27.213501 c 5.22222,-3.442942 4.79822,-11.547052 -0.74997,-14.334558 -7.03414,-3.534076 -14.53827,3.970056 -11.0042,11.004199 2.04002,4.060402 8.0598,5.766012 11.75417,3.330359 z"
   id="path714" /><path
   style="fill:#ffffff;fill-opacity:1;stroke-width:10.2802;paint-order:markers fill stroke"
   d="m 250.53325,183.09493 -22.08863,-7.67086 1.02135,-3.30327 c 1.99914,-6.46565 3.17288,-15.23515 3.16154,-23.62113 -0.0123,-9.13331 -0.48792,-13.21525 -2.49983,-21.45647 -0.78825,-3.22887 -1.34143,-5.94659 -1.22927,-6.03936 0.33586,-0.27781 43.48072,-15.01767 43.95805,-15.01767 0.52941,0 3.47632,10.07225 4.61566,15.77589 2.09138,10.46957 2.61753,17.34921 2.30903,30.19164 -0.3169,13.19225 -0.97623,18.22616 -3.87878,29.61383 -1.33389,5.23329 -2.71955,9.3413 -3.11673,9.24002 -0.0901,-0.023 -10.10364,-3.49365 -22.25239,-7.71262 z m 11.83082,-28.20351 c 3.35431,-2.06133 4.53297,-7.69563 2.35662,-11.26527 -1.17322,-1.92431 -4.73834,-3.8803 -7.10909,-3.90038 -2.25572,-0.0191 -5.98293,2.26182 -7.10019,4.34508 -3.17907,5.92772 1.71186,13.14624 8.23861,12.15935 1.04719,-0.15834 2.67351,-0.76079 3.61405,-1.33878 z"
   id="path716" /><path
   style="fill:#ffffff;fill-opacity:1;stroke-width:10.2802;paint-order:markers fill stroke"
   d="m 173.62345,276.66443 c -0.12611,-0.374 -2.08759,-10.3495 -4.35885,-22.16778 -2.27126,-11.81828 -4.24504,-21.87635 -4.38617,-22.35128 -0.19894,-0.66949 0.44813,-1.02089 2.87994,-1.56399 13.62987,-3.04393 28.02575,-10.85612 38.68944,-20.99552 l 5.51091,-5.23996 1.51225,1.27562 c 0.83174,0.70159 8.78947,7.60506 17.68384,15.34103 l 16.17158,14.06542 -1.63585,2.06542 c -2.06256,2.6042 -9.2618,9.39181 -14.33708,13.51733 -14.54264,11.82123 -31.97318,20.61541 -50.30397,25.37972 -5.89472,1.53208 -7.09982,1.64146 -7.42604,0.67399 z m 33.51459,-26.55416 c 3.94529,-2.01274 5.42933,-7.91491 2.9439,-11.70815 -3.04058,-4.64051 -11.00606,-4.62168 -13.88271,0.0328 -1.54209,2.49516 -1.47896,6.62448 0.13827,9.04534 2.41359,3.61292 6.78656,4.67776 10.80054,2.62999 z"
   id="path718" /><path
   style="fill:#ffffff;fill-opacity:1;stroke-width:10.2802;paint-order:markers fill stroke"
   d="M 114.96196,275.94849 C 91.114867,269.40591 70.853666,257.54331 53.548441,239.9919 l -4.73962,-4.80705 16.931643,-14.68785 c 9.312404,-8.07832 17.376188,-15.00396 17.919521,-15.39031 0.878273,-0.62452 1.456971,-0.24064 5.215801,3.45991 10.471565,10.30921 24.033154,18.0224 37.819584,21.50998 2.61797,0.66227 4.75995,1.4421 4.75995,1.73296 0,0.44095 -6.30636,33.2389 -8.20626,42.67891 -0.52491,2.60811 -0.70128,2.85251 -2.03221,2.81611 -0.80157,-0.0219 -3.61628,-0.63216 -6.25489,-1.35607 z M 97.500874,250.35878 c 3.847266,-1.82565 5.490606,-7.64555 3.236366,-11.46166 -1.289787,-2.18344 -4.494148,-3.98427 -7.089538,-3.98427 -2.954303,0 -6.048643,1.94826 -7.343876,4.62386 -1.399068,2.89008 -1.37132,4.38506 0.13595,7.3245 2.0531,4.00391 6.818583,5.51078 11.061098,3.49757 z"
   id="path720" /></svg>
