<?xml version="1.0" encoding="UTF-8" standalone="no"?>
<svg
   xmlns:dc="http://purl.org/dc/elements/1.1/"
   xmlns:cc="http://creativecommons.org/ns#"
   xmlns:rdf="http://www.w3.org/1999/02/22-rdf-syntax-ns#"
   xmlns:svg="http://www.w3.org/2000/svg"
   xmlns="http://www.w3.org/2000/svg"
   xmlns:sodipodi="http://sodipodi.sourceforge.net/DTD/sodipodi-0.dtd"
   xmlns:inkscape="http://www.inkscape.org/namespaces/inkscape"
   version="1.1"
   id="Capa_1"
   x="0px"
   y="0px"
   viewBox="0 0 296.477 296.477"
   style="enable-background:new 0 0 296.477 296.477;"
   xml:space="preserve"
   sodipodi:docname="greenSpadesAvatar.svg"
   inkscape:version="1.0.1 (0767f8302a, 2020-10-17)"><metadata
   id="metadata210"><rdf:RDF><cc:Work
       rdf:about=""><dc:format>image/svg+xml</dc:format><dc:type
         rdf:resource="http://purl.org/dc/dcmitype/StillImage" /><dc:title /></cc:Work></rdf:RDF></metadata><defs
   id="defs208" /><sodipodi:namedview
   pagecolor="#ffffff"
   bordercolor="#666666"
   borderopacity="1"
   objecttolerance="10"
   gridtolerance="10"
   guidetolerance="10"
   inkscape:pageopacity="0"
   inkscape:pageshadow="2"
   inkscape:window-width="1366"
   inkscape:window-height="712"
   id="namedview206"
   showgrid="false"
   inkscape:zoom="1.838254"
   inkscape:cx="145.36915"
   inkscape:cy="150.80954"
   inkscape:window-x="0"
   inkscape:window-y="32"
   inkscape:window-maximized="1"
   inkscape:current-layer="Capa_1"
   inkscape:document-rotation="0" />
<g
   id="g173">
	<path
   d="M244.63,35.621c-21.771-18.635-47.382-29.855-73.767-33.902C121.871-5.797,70.223,11.421,35.622,51.847   c-53.236,62.198-45.972,155.773,16.226,209.01c21.771,18.634,47.381,29.853,73.766,33.901   c48.991,7.517,100.641-9.703,135.241-50.13C314.091,182.431,306.826,88.856,244.63,35.621z M273.361,191.241l-45.305-15.618   c6.102-17.803,6.028-37.107,0.014-54.724l45.257-15.575c3.577,10.453,5.862,21.429,6.74,32.741   C281.489,156.374,279.152,174.388,273.361,191.241z M275.905,104.058c0-0.003,0-0.005,0-0.008   C275.905,104.053,275.905,104.055,275.905,104.058z M247.935,61.472l-36.069,31.332c-2.669-3.055-5.579-5.961-8.752-8.677   c-11.467-9.814-24.81-15.995-38.637-18.692l9.095-46.741c22.33,4.33,43.21,14.294,60.635,29.209   C239.147,52.131,243.728,56.669,247.935,61.472z M103.251,23.983c6.428-2.315,13.021-4.109,19.71-5.388l9.087,46.843   c-17.789,3.467-34.584,12.651-47.393,27.341L48.55,61.38C63.334,44.416,82.206,31.568,103.251,23.983z M23.124,105.236   l45.297,15.617c-6.102,17.803-6.028,37.105-0.015,54.723l-45.295,15.588c-3.562-10.441-5.837-21.4-6.713-32.688   C14.976,140.151,17.32,122.11,23.124,105.236z M48.467,235.066l36.145-31.395c2.669,3.056,5.58,5.964,8.754,8.68   c11.466,9.814,24.808,15.993,38.634,18.691l-9.143,46.997c-22.325-4.348-43.185-14.422-60.604-29.333   C57.288,244.458,52.689,239.898,48.467,235.066z M193.203,272.635c-6.409,2.309-12.986,4.11-19.658,5.403l-9.117-47   c17.789-3.467,34.585-12.651,47.394-27.342l36.121,31.409C233.154,252.087,214.257,265.047,193.203,272.635z"
   id="path159" />
	<circle
   cx="93.372"
   cy="53.498"
   r="8"
   id="circle161" />
	<circle
   cx="38.758"
   cy="148.382"
   r="8"
   id="circle163" />
	<circle
   cx="93.623"
   cy="243.123"
   r="8"
   id="circle165" />
	<circle
   cx="203.105"
   cy="242.977"
   r="8.001"
   id="circle167" />
	<circle
   cx="257.717"
   cy="148.091"
   r="8"
   id="circle169" />
	<circle
   cx="202.853"
   cy="53.351"
   r="8"
   id="circle171" />
</g>
<g
   id="g175">
</g>
<g
   id="g177">
</g>
<g
   id="g179">
</g>
<g
   id="g181">
</g>
<g
   id="g183">
</g>
<g
   id="g185">
</g>
<g
   id="g187">
</g>
<g
   id="g189">
</g>
<g
   id="g191">
</g>
<g
   id="g193">
</g>
<g
   id="g195">
</g>
<g
   id="g197">
</g>
<g
   id="g199">
</g>
<g
   id="g201">
</g>
<g
   id="g203">
</g>
<path
   style="opacity:1;fill:#008000;stroke-width:10.2802;paint-order:markers fill stroke"
   d="M 135.84925,295.70701 C 118.81576,293.76535 106.62021,290.87139 93.579912,285.67665 80.970784,280.65366 66.599375,272.25978 55.666658,263.53274 49.206664,258.37605 38.043074,247.2803 33.109453,241.11262 15.588766,219.20942 4.6836446,193.13369 1.1451833,164.68139 0.15393383,156.71089 0.30489698,137.85069 1.4260363,129.59375 4.3081775,108.36741 11.821206,87.319276 22.688327,70.026355 30.545867,57.522599 42.936336,43.445989 54.407887,33.990275 87.072308,7.0658092 131.11728,-4.7343574 172.54425,2.3401525 243.96536,14.536782 296.04956,75.917326 296.05497,147.89593 c 0.003,45.06491 -19.54342,86.29171 -54.52981,115.01064 -22.31872,18.32053 -49.83817,29.64075 -79.21381,32.58487 -5.15606,0.51676 -22.57505,0.65866 -26.4621,0.21557 z m -12.50784,-18.82675 c 0.63064,-2.60101 8.93246,-45.77902 8.81942,-45.87002 -0.0657,-0.0529 -2.88994,-0.86396 -6.27599,-1.8023 -14.2344,-3.94462 -26.040978,-10.88078 -37.484849,-22.02171 l -3.929701,-3.82567 -1.238246,1.10633 c -0.681038,0.60848 -7.847779,6.82007 -15.926097,13.80353 -8.078318,6.98346 -15.73128,13.64129 -17.006583,14.79517 l -2.318733,2.09795 5.020761,5.18991 c 16.472629,17.02757 37.934631,29.69832 60.634718,35.79754 8.49129,2.2815 9.31397,2.34332 9.7053,0.72927 z m 61.46734,-1.30071 c 17.10037,-4.91232 32.92834,-13.1518 47.05553,-24.49542 5.27555,-4.23607 16.46222,-15.26515 16.21343,-15.98502 -0.20304,-0.58747 -35.70647,-31.52211 -36.17767,-31.52211 -0.18519,0 -2.80692,2.39797 -5.82607,5.32881 -10.69422,10.38141 -23.62513,17.39128 -39.35303,21.33337 -1.46841,0.36805 -2.31198,0.88518 -2.31198,1.41732 0,0.46082 1.95838,10.92829 4.35196,23.26104 2.39357,12.33275 4.35195,22.62277 4.35195,22.86671 0,0.70024 4.60571,-0.16794 11.69588,-2.2047 z M 58.602036,179.30672 c 4.787151,-1.62962 8.988888,-3.14046 9.337192,-3.35743 0.463869,-0.28895 0.22165,-1.99441 -0.905446,-6.37518 -2.06348,-8.02029 -2.719804,-13.1646 -2.719804,-21.3181 0,-7.8726 1.103645,-16.17338 3.037741,-22.84754 0.743194,-2.5646 1.281727,-4.71889 1.196739,-4.78729 -0.963479,-0.77551 -45.247356,-15.50604 -45.577465,-15.16084 -1.1563,1.20919 -4.187185,13.10714 -5.801302,22.77342 -1.526486,9.14149 -1.403849,31.71085 0.223262,41.08797 1.142939,6.5868 3.812225,17.74155 4.969898,20.76883 l 0.563453,1.47341 13.48591,-4.64716 c 7.417251,-2.55593 17.40267,-5.98047 22.189822,-7.61009 z m 216.405794,7.54245 c 7.70526,-25.69356 7.619,-51.8875 -0.25709,-78.06321 -0.60767,-2.01958 -1.25527,-3.67196 -1.43911,-3.67196 -0.46187,0 -44.93139,15.30127 -45.19959,15.55248 -0.11895,0.11142 0.41261,2.59402 1.18124,5.51691 2.27141,8.63756 2.81687,12.96841 2.79328,22.17817 -0.0233,9.09589 -0.88508,15.63813 -2.99635,22.7471 -0.60555,2.03901 -1.00847,3.98491 -0.89537,4.32422 0.15386,0.46156 43.31344,15.91562 45.06327,16.13571 0.17723,0.0223 0.96461,-2.10145 1.74972,-4.71942 z M 97.967021,80.961803 C 106.03227,74.80916 117.37992,69.358308 127.258,66.891859 c 2.63081,-0.656884 4.85577,-1.231223 4.94437,-1.276303 0.32101,-0.163367 -8.74267,-46.194168 -9.19235,-46.684184 -1.06398,-1.159453 -16.3461,3.152864 -27.017732,7.623879 C 85.899962,30.78356 73.970489,37.901543 65.12997,44.969932 59.902264,49.149714 48.462794,60.557201 48.654072,61.399767 c 0.08584,0.378098 8.218763,7.68643 18.073174,16.240738 l 17.917106,15.553291 4.658665,-4.58824 c 2.562263,-2.52353 6.461066,-5.963218 8.664004,-7.643753 z M 230.77629,76.813154 c 9.4247,-8.171265 17.20472,-15.022549 17.28893,-15.225078 0.27472,-0.660779 -7.09972,-8.239226 -12.66498,-13.015338 -14.28483,-12.25926 -29.59525,-20.84129 -47.03036,-26.36218 -6.2372,-1.975029 -14.54615,-3.950322 -14.92435,-3.547976 -0.26673,0.283757 -9.03657,45.215841 -9.03657,46.298662 0,0.533893 1.35305,1.100001 4.21596,1.763924 8.95624,2.077004 20.45712,7.399495 28.57206,13.222852 2.40216,1.72381 6.71745,5.37466 9.58953,8.112998 4.4013,4.196346 5.35021,4.87116 6.03796,4.293884 0.4488,-0.3767 8.52711,-7.370488 17.95182,-15.541748 z"
   id="path404" /><path
   style="opacity:1;fill:#008000;stroke-width:10.2802;paint-order:markers fill stroke"
   d="m 90.436556,249.98101 c -7.290821,-3.77599 -4.798921,-14.51769 3.341804,-14.40534 2.759858,0.0381 4.984292,1.43251 6.45251,4.04486 3.56094,6.33583 -3.382867,13.68104 -9.794314,10.36048 z"
   id="path406" /><path
   style="opacity:1;fill:#008000;stroke-width:10.2802;paint-order:markers fill stroke"
   d="m 35.482271,155.04925 c -3.095129,-1.5776 -4.508971,-4.09702 -4.169453,-7.42983 0.316147,-3.10339 1.793004,-4.99845 4.90542,-6.29447 2.499723,-1.04089 2.556276,-1.04089 5.055999,0 3.113566,1.2965 4.580139,3.1802 4.936331,6.34032 0.683747,6.06618 -5.271765,10.16519 -10.728297,7.38398 z"
   id="path410" /><path
   style="opacity:1;fill:#008000;stroke-width:10.2802;paint-order:markers fill stroke"
   d="m 89.282173,59.815615 c -3.8975,-2.603699 -4.702818,-7.311102 -1.883167,-11.007855 3.801198,-4.983629 11.69588,-3.19495 13.371994,3.029659 0.48633,1.806107 0.40665,2.545452 -0.49371,4.580871 -1.957014,4.424147 -7.085856,6.008882 -10.995117,3.397325 z"
   id="path412" /><path
   style="opacity:1;fill:#008000;stroke-width:10.2802;paint-order:markers fill stroke"
   d="m 199.17032,59.889734 c -6.74759,-3.913348 -4.11771,-14.062025 3.6458,-14.069099 6.16784,-0.0056 9.7571,6.97091 6.1747,12.001918 -2.26787,3.184931 -6.3952,4.053721 -9.8205,2.067181 z"
   id="path414" /><path
   style="opacity:1;fill:#008000;stroke-width:10.2802;paint-order:markers fill stroke"
   d="m 254.16805,154.78317 c -1.2733,-0.6565 -2.33434,-1.84962 -3.20319,-3.60197 -1.17672,-2.37325 -1.2362,-2.83061 -0.63092,-4.85087 2.37042,-7.91175 13.25815,-7.54183 14.96375,0.50841 0.47229,2.22911 -1.23174,6.23979 -3.19868,7.52858 -2.12827,1.3945 -5.67241,1.58033 -7.93096,0.41585 z"
   id="path416" /><path
   style="opacity:1;fill:#008000;stroke-width:10.2802;paint-order:markers fill stroke"
   d="m 199.77547,249.66697 c -4.15276,-2.19603 -5.52683,-7.22046 -3.02066,-11.04536 1.28056,-1.95438 5.34436,-3.68707 7.63825,-3.25673 7.29503,1.36855 8.51294,11.40415 1.75624,14.47133 -2.95385,1.34089 -3.54797,1.32512 -6.37383,-0.16924 z"
   id="path418" /><g
   id="g1145"
   transform="matrix(2.142836,0,0,2.0711171,86.162755,88.240045)"
   style="fill:#ffffff"><path
     style="fill:#ffffff"
     d="M 54.822,24.938 C 51.086,18.334 43.441,8.828 29.154,0.051 29.042,-0.018 28.896,-0.018 28.785,0.051 14.5,8.828 6.853,18.045 3.116,24.649 -1.279,32.416 1.227,41.8 9.22,45.768 c 2.084,1.034 3.599,1.17 5.396,1.17 0,0 0.44,-0.015 1.164,-0.123 3.212,-0.48 6.165,-2.041 8.45,-4.349 l 0.325,-0.328 c 0.475,-0.48 1.29,-0.103 1.227,0.57 -0.339,3.645 -0.998,9.113 -3.787,12.591 -0.855,1.066 -0.155,2.64 1.212,2.64 h 11.534 c 1.363,0 2.058,-1.57 1.204,-2.633 -2.824,-3.516 -3.462,-9.069 -3.807,-12.715 -0.054,-0.569 0.648,-0.876 1.033,-0.453 v 0 c 1.992,2.194 4.562,3.806 7.428,4.56 1.595,0.42 2.721,0.53 2.721,0.53 1.797,0 3.313,-0.136 5.396,-1.17 7.995,-3.969 10.501,-13.353 6.106,-21.12 z"
     id="path1143" /></g><path
   style="fill:#ffffff;fill-opacity:1;stroke-width:10.2802;paint-order:markers fill stroke"
   d="m 21.391816,184.37441 c -3.576196,-12.91168 -4.949354,-22.97862 -4.949354,-36.28484 0,-13.35303 1.406612,-23.62206 4.967183,-36.26314 l 1.710123,-6.07144 2.23729,0.67417 c 1.23051,0.37079 11.301429,3.79435 22.37982,7.60791 l 20.142528,6.93374 -1.467205,5.83876 c -2.018502,8.03264 -2.642221,13.08088 -2.642221,21.38554 0,8.00628 1.08033,16.36239 2.949982,22.81746 0.870439,3.00523 1.073729,4.4331 0.652967,4.58631 -4.809388,1.75121 -43.487927,14.92226 -43.821231,14.92226 -0.251571,0 -1.223518,-2.76603 -2.159882,-6.14673 z m 21.155515,-28.81848 c 7.542509,-3.98857 4.753241,-15.29151 -3.773543,-15.29151 -4.584323,0 -7.704437,2.91345 -8.04832,7.51523 -0.149244,1.99717 0.08154,3.27934 0.836672,4.64831 1.159397,2.10187 4.884562,4.36552 7.184095,4.36552 0.803473,0 2.513967,-0.5569 3.801096,-1.23755 z"
   id="path82" /><path
   style="fill:#ffffff;fill-opacity:1;stroke-width:10.2802;paint-order:markers fill stroke"
   d="M 67.092229,77.098948 C 57.69958,68.904861 49.772221,61.958142 49.475875,61.661797 48.797959,60.98388 58.888506,50.839347 65.401964,45.6505 79.797734,34.182332 96.676431,25.631511 113.88971,21.086399 c 3.99943,-1.056037 7.6417,-1.920843 8.09393,-1.921793 0.65094,-0.0014 1.70697,4.616621 5.06891,22.166048 2.33567,12.192276 4.3563,22.556352 4.49028,23.03128 0.18814,0.666899 -0.47053,1.021829 -2.89294,1.55887 -14.62512,3.242356 -30.004811,11.921409 -40.92557,23.095088 -1.635363,1.673235 -3.104148,3.028554 -3.263967,3.011826 -0.159819,-0.01675 -7.975475,-6.734679 -17.368124,-14.92877 z M 97.27085,60.720541 c 3.91202,-1.856373 5.62668,-8.143745 3.13735,-11.504112 -2.894926,-3.907889 -7.188892,-4.970036 -11.132362,-2.753682 -2.247362,1.263088 -4.299624,4.624678 -4.278126,7.007537 0.0207,2.294401 2.005042,5.867343 3.900383,7.022903 2.19201,1.336433 5.827512,1.435152 8.372755,0.227354 z"
   id="path84" /><path
   style="fill:#ffffff;fill-opacity:1;stroke-width:10.2802;paint-order:markers fill stroke"
   d="m 207.14193,87.406207 c -6.6352,-6.270162 -13.47075,-11.062002 -21.24519,-14.893265 -6.15517,-3.033282 -14.34112,-6.000026 -18.90381,-6.8511 -1.12199,-0.209284 -2.03998,-0.547572 -2.03998,-0.751752 0,-0.853097 8.79456,-45.475191 9.00396,-45.6846 0.12593,-0.125928 3.3535,0.569735 7.17239,1.545919 16.80863,4.296629 32.88302,12.073024 47.11224,22.791746 6.1739,4.650734 18.97951,16.794048 18.74161,17.77231 -0.1296,0.532907 -34.48659,30.784476 -34.86186,30.69611 -0.062,-0.01463 -2.30276,-2.096027 -4.97936,-4.625368 z m -0.33707,-26.881554 c 2.32984,-1.188594 4.38762,-4.662158 4.38762,-7.40636 0,-2.241077 -1.68529,-5.170966 -3.80769,-6.619692 -3.29363,-2.248202 -9.12525,-1.249119 -11.20108,1.918989 -4.84865,7.399983 2.78692,16.103787 10.62115,12.107063 z"
   id="path86" /><path
   style="fill:#ffffff;fill-opacity:1;stroke-width:10.2802;paint-order:markers fill stroke"
   d="m 250.63208,183.11522 c -11.66868,-4.0483 -21.38476,-7.52645 -21.59129,-7.72923 -0.20653,-0.20278 0.10176,-2.08228 0.68509,-4.17666 2.15971,-7.75415 2.86268,-13.32987 2.88059,-22.84777 0.0182,-9.6976 -0.77163,-15.88127 -2.97726,-23.30787 -0.60831,-2.04824 -1.01693,-3.81316 -0.90805,-3.92203 0.10887,-0.10888 10.10172,-3.60625 22.20632,-7.77192 14.95333,-5.14603 22.12281,-7.37645 22.36537,-6.95785 0.85932,1.48298 3.31669,10.99221 4.53324,17.54213 3.33132,17.93585 3.07623,35.22762 -0.78152,52.97725 -1.70032,7.8232 -3.49639,13.30498 -4.4029,13.438 -0.43659,0.0641 -10.34091,-3.19576 -22.00959,-7.24405 z m 11.14681,-27.87503 c 2.09447,-1.12327 4.35703,-4.83652 4.35703,-7.15062 0,-2.3141 -2.26256,-6.02735 -4.35703,-7.15063 -2.01508,-1.0807 -5.11933,-1.30992 -7.16744,-0.52925 -3.59177,1.36908 -5.84685,5.95093 -4.81497,9.78303 0.58785,2.18312 2.75883,4.77505 4.64356,5.54394 1.91208,0.78006 5.3984,0.54421 7.33885,-0.49647 z"
   id="path88" /><path
   style="fill:#ffffff;fill-opacity:1;stroke-width:10.2802;paint-order:markers fill stroke"
   d="m 173.44029,276.06427 c -2.77455,-13.69789 -8.52409,-44.34413 -8.35173,-44.5165 0.12646,-0.12645 2.82434,-0.95842 5.99529,-1.84881 14.04299,-3.9432 25.64039,-10.64574 36.30067,-20.97941 l 4.62395,-4.48229 17.40782,15.17845 c 9.57431,8.34815 17.49824,15.44756 17.60874,15.77646 0.1105,0.3289 -2.72806,3.46651 -6.30792,6.97246 -16.55774,16.2159 -36.63492,27.71756 -58.42857,33.4721 -3.99943,1.05604 -7.55824,1.92084 -7.90846,1.9218 -0.35022,10e-4 -0.77313,-0.67147 -0.93979,-1.49426 z m 34.29431,-26.30199 c 3.35431,-2.06132 4.53297,-7.69563 2.35662,-11.26526 -1.15556,-1.89534 -4.7285,-3.87969 -7.0229,-3.90039 -0.72833,-0.007 -2.33565,0.47767 -3.57182,1.0761 -3.90606,1.89089 -5.77136,7.0964 -3.85955,10.77085 2.43572,4.68138 7.58264,6.09331 12.09765,3.3187 z"
   id="path90" /><path
   style="fill:#ffffff;fill-opacity:1;stroke-width:10.2802;paint-order:markers fill stroke"
   d="M 115.17746,275.95169 C 98.196614,271.47597 81.944115,263.45995 67.327519,252.35125 62.694431,248.83008 48.949068,235.75121 49.203695,235.10623 c 0.08274,-0.20958 8.038183,-7.22604 17.678768,-15.59214 l 17.528335,-15.21109 4.921087,4.73719 c 6.369097,6.13109 12.830255,10.69233 20.790425,14.67695 5.49227,2.74926 15.268,6.30011 20.08673,7.29612 l 1.43172,0.29593 -0.75496,3.94972 c -6.2406,32.64914 -8.23379,42.03924 -8.94691,42.14963 -0.42762,0.0662 -3.47027,-0.58939 -6.76143,-1.45685 z M 96.949649,250.57065 c 5.368851,-2.14819 6.525161,-9.37503 2.16795,-13.5495 -2.247819,-2.15355 -7.180822,-2.57889 -9.963521,-0.85909 -5.171704,3.19629 -4.760175,11.36747 0.719149,14.27919 2.330071,1.2382 4.218935,1.27274 7.076422,0.1294 z"
   id="path92" /></svg>
