<?xml version="1.0" encoding="UTF-8" standalone="no"?>
<svg
   xmlns:dc="http://purl.org/dc/elements/1.1/"
   xmlns:cc="http://creativecommons.org/ns#"
   xmlns:rdf="http://www.w3.org/1999/02/22-rdf-syntax-ns#"
   xmlns:svg="http://www.w3.org/2000/svg"
   xmlns="http://www.w3.org/2000/svg"
   xmlns:sodipodi="http://sodipodi.sourceforge.net/DTD/sodipodi-0.dtd"
   xmlns:inkscape="http://www.inkscape.org/namespaces/inkscape"
   version="1.1"
   id="Capa_1"
   x="0px"
   y="0px"
   viewBox="0 0 296.477 296.477"
   style="enable-background:new 0 0 296.477 296.477;"
   xml:space="preserve"
   sodipodi:docname="redSpadesAvatar.svg"
   inkscape:version="1.0.1 (0767f8302a, 2020-10-17)"><metadata
   id="metadata210"><rdf:RDF><cc:Work
       rdf:about=""><dc:format>image/svg+xml</dc:format><dc:type
         rdf:resource="http://purl.org/dc/dcmitype/StillImage" /><dc:title /></cc:Work></rdf:RDF></metadata><defs
   id="defs208" /><sodipodi:namedview
   pagecolor="#ffffff"
   bordercolor="#666666"
   borderopacity="1"
   objecttolerance="10"
   gridtolerance="10"
   guidetolerance="10"
   inkscape:pageopacity="0"
   inkscape:pageshadow="2"
   inkscape:window-width="1366"
   inkscape:window-height="712"
   id="namedview206"
   showgrid="false"
   inkscape:zoom="1.838254"
   inkscape:cx="145.36915"
   inkscape:cy="150.80954"
   inkscape:window-x="0"
   inkscape:window-y="32"
   inkscape:window-maximized="1"
   inkscape:current-layer="Capa_1"
   inkscape:document-rotation="0" />
<g
   id="g173">
	<path
   d="M244.63,35.621c-21.771-18.635-47.382-29.855-73.767-33.902C121.871-5.797,70.223,11.421,35.622,51.847   c-53.236,62.198-45.972,155.773,16.226,209.01c21.771,18.634,47.381,29.853,73.766,33.901   c48.991,7.517,100.641-9.703,135.241-50.13C314.091,182.431,306.826,88.856,244.63,35.621z M273.361,191.241l-45.305-15.618   c6.102-17.803,6.028-37.107,0.014-54.724l45.257-15.575c3.577,10.453,5.862,21.429,6.74,32.741   C281.489,156.374,279.152,174.388,273.361,191.241z M275.905,104.058c0-0.003,0-0.005,0-0.008   C275.905,104.053,275.905,104.055,275.905,104.058z M247.935,61.472l-36.069,31.332c-2.669-3.055-5.579-5.961-8.752-8.677   c-11.467-9.814-24.81-15.995-38.637-18.692l9.095-46.741c22.33,4.33,43.21,14.294,60.635,29.209   C239.147,52.131,243.728,56.669,247.935,61.472z M103.251,23.983c6.428-2.315,13.021-4.109,19.71-5.388l9.087,46.843   c-17.789,3.467-34.584,12.651-47.393,27.341L48.55,61.38C63.334,44.416,82.206,31.568,103.251,23.983z M23.124,105.236   l45.297,15.617c-6.102,17.803-6.028,37.105-0.015,54.723l-45.295,15.588c-3.562-10.441-5.837-21.4-6.713-32.688   C14.976,140.151,17.32,122.11,23.124,105.236z M48.467,235.066l36.145-31.395c2.669,3.056,5.58,5.964,8.754,8.68   c11.466,9.814,24.808,15.993,38.634,18.691l-9.143,46.997c-22.325-4.348-43.185-14.422-60.604-29.333   C57.288,244.458,52.689,239.898,48.467,235.066z M193.203,272.635c-6.409,2.309-12.986,4.11-19.658,5.403l-9.117-47   c17.789-3.467,34.585-12.651,47.394-27.342l36.121,31.409C233.154,252.087,214.257,265.047,193.203,272.635z"
   id="path159" />
	<circle
   cx="93.372"
   cy="53.498"
   r="8"
   id="circle161" />
	<circle
   cx="38.758"
   cy="148.382"
   r="8"
   id="circle163" />
	<circle
   cx="93.623"
   cy="243.123"
   r="8"
   id="circle165" />
	<circle
   cx="203.105"
   cy="242.977"
   r="8.001"
   id="circle167" />
	<circle
   cx="257.717"
   cy="148.091"
   r="8"
   id="circle169" />
	<circle
   cx="202.853"
   cy="53.351"
   r="8"
   id="circle171" />
</g>
<g
   id="g175">
</g>
<g
   id="g177">
</g>
<g
   id="g179">
</g>
<g
   id="g181">
</g>
<g
   id="g183">
</g>
<g
   id="g185">
</g>
<g
   id="g187">
</g>
<g
   id="g189">
</g>
<g
   id="g191">
</g>
<g
   id="g193">
</g>
<g
   id="g195">
</g>
<g
   id="g197">
</g>
<g
   id="g199">
</g>
<g
   id="g201">
</g>
<g
   id="g203">
</g>
<path
   style="fill:#ff0000;stroke-width:10.2802;paint-order:markers fill stroke"
   d="M 140.43122,296.01561 C 103.04101,293.92406 68.164126,277.92231 41.890981,250.80468 -0.17608885,207.38545 -11.403545,143.51107 13.232382,87.762352 20.196246,72.0038 30.834489,56.671262 43.835797,43.654681 66.134407,21.329878 93.940989,7.1987039 125.74337,2.0296355 134.42005,0.61935331 152.83417,0.05801631 161.75747,0.93178011 196.54333,4.33799 228.29144,19.262745 252.7526,43.708501 c 24.34422,24.328878 39.10135,55.574278 42.76265,90.541719 0.82195,7.85004 0.35085,27.71802 -0.83899,35.3833 -4.01567,25.87008 -15.02885,51.04741 -31.1646,71.24569 -5.12947,6.42094 -16.28216,17.61426 -22.44146,22.52324 -28.64107,22.827 -64.99271,34.60715 -100.63898,32.61316 z m -17.20463,-18.53518 c 0.28724,-0.98895 9.04472,-46.05713 9.04472,-46.54639 0,-0.15263 -1.04039,-0.44981 -2.31198,-0.66039 -4.19708,-0.69509 -13.25908,-3.93692 -18.93395,-6.77342 -7.85613,-3.92678 -14.551662,-8.66584 -20.987285,-14.85471 l -5.535807,-5.32355 -18.003062,15.62149 c -9.90169,8.59182 -18.003068,15.89232 -18.003068,16.22335 0,0.94081 11.70205,12.34237 17.135826,16.69581 14.230428,11.40116 31.526629,20.02919 49.503496,24.69433 8.39396,2.17829 7.74806,2.10457 8.09111,0.92348 z m 55.96111,-0.39 c 5.53304,-1.23195 16.49457,-4.91347 22.6662,-7.61262 14.79495,-6.47055 29.76804,-16.92488 41.52828,-28.99534 2.61797,-2.68703 4.74608,-5.10064 4.72912,-5.36356 -0.0251,-0.38908 -27.95862,-24.92045 -34.41481,-30.22328 l -1.77453,-1.4575 -5.18643,4.99347 c -6.35262,6.11626 -12.2604,10.39948 -19.62838,14.23081 -5.79011,3.01084 -14.1527,6.15486 -19.6122,7.37344 -1.72038,0.38401 -3.13429,0.96523 -3.14203,1.29161 -0.008,0.32639 2.00215,11.05026 4.46639,23.83084 4.2459,22.02103 4.53852,23.22462 5.58999,22.9932 0.61027,-0.13431 2.76054,-0.6118 4.7784,-1.06107 z M 46.32018,183.50774 c 12.117477,-4.1397 22.096964,-7.57173 22.176642,-7.62671 0.07967,-0.055 -0.468303,-2.40372 -1.217726,-5.21941 -3.987936,-14.98319 -3.975484,-31.10066 0.03471,-44.93903 0.745436,-2.57234 1.16157,-4.84975 0.924742,-5.06091 -0.527789,-0.4706 -43.643139,-15.34867 -44.72044,-15.43195 -0.866556,-0.067 -2.043302,3.35687 -4.144955,12.06016 -2.720375,11.26551 -3.238766,16.276 -3.220528,31.12785 0.01869,15.22221 0.703695,21.01111 3.992945,33.74403 2.016915,7.80763 2.624684,9.40261 3.470394,9.10742 0.369848,-0.12909 10.586742,-3.62174 22.704219,-7.76145 z m 228.71435,3.39761 c 7.59867,-25.08222 7.57255,-51.76943 -0.0756,-77.26986 -1.14703,-3.82442 -1.60656,-4.71633 -2.29371,-4.4519 -0.47261,0.18188 -10.5288,3.65083 -22.34708,7.7088 -11.81828,4.05796 -21.71009,7.58105 -21.98179,7.82908 -0.29173,0.26632 -0.0123,2.07517 0.68252,4.41771 4.11526,13.87493 4.29869,29.11669 0.53117,44.13687 -0.88878,3.54335 -1.5367,6.51493 -1.43982,6.60353 0.33449,0.30588 44.24156,15.43939 44.9022,15.47651 0.36903,0.0207 1.26479,-1.95083 2.02214,-4.45074 z M 89.297278,88.441159 C 100.0375,78.023039 111.9407,71.150931 125.98646,67.259271 c 3.30707,-0.916288 6.08533,-1.727971 6.17393,-1.803744 0.29602,-0.253192 -8.72387,-46.229428 -9.16422,-46.711845 -0.57316,-0.627926 -14.12018,2.846747 -20.96767,5.377998 -6.849891,2.532133 -18.333761,8.110006 -23.612646,11.468979 -8.004041,5.093001 -16.69358,11.992401 -23.318829,18.514905 -3.699847,3.642469 -6.62699,6.922691 -6.504761,7.289376 0.210283,0.630848 35.231396,31.443103 35.80753,31.504161 0.149598,0.01583 2.353467,-1.99022 4.897484,-4.457942 z M 230.21113,77.342758 c 9.86205,-8.573146 17.931,-15.774159 17.931,-16.002256 0,-0.820213 -11.53478,-11.983999 -16.45837,-15.929016 -15.11177,-12.108264 -33.00706,-20.963267 -51.45202,-25.459637 -3.69106,-0.899777 -6.7764,-1.555147 -6.85631,-1.456377 -0.18753,0.231795 -9.00845,45.831592 -9.00845,46.56926 0,0.30653 1.28519,0.858847 2.85597,1.227377 8.66797,2.03363 19.16175,6.523608 26.79173,11.463399 4.80486,3.110751 13.39883,10.298012 15.62311,13.065828 0.93214,1.159932 1.908,2.108963 2.16857,2.108963 0.26057,0 8.54271,-7.014395 18.40477,-15.587541 z"
   id="path346" /><path
   style="fill:#ff0000;stroke-width:10.2802;paint-order:markers fill stroke"
   d="m 35.027323,154.94861 c -2.290688,-1.39665 -3.934921,-4.12562 -3.934921,-6.53087 0,-1.04719 0.486442,-2.70181 1.080983,-3.67694 2.715783,-4.45424 8.234423,-5.20927 11.825752,-1.61794 6.12024,6.12024 -1.612507,16.31277 -8.971814,11.82575 z"
   id="path348" /><path
   style="fill:#ff0000;stroke-width:10.2802;paint-order:markers fill stroke"
   d="m 90.65573,250.16674 c -3.931688,-1.63698 -5.789075,-7.23892 -3.571219,-10.7709 3.223546,-5.13357 9.964087,-5.13357 13.094059,0 3.59953,5.9037 -3.076623,13.45483 -9.52284,10.7709 z"
   id="path350" /><path
   style="fill:#ff0000;stroke-width:10.2802;paint-order:markers fill stroke"
   d="m 199.95248,249.91546 c -7.00777,-3.05119 -5.25766,-13.59083 2.3786,-14.32458 5.17573,-0.49732 8.50567,2.73813 8.12461,7.89407 -0.40511,5.48144 -5.50779,8.60551 -10.50321,6.43051 z"
   id="path352" /><path
   style="fill:#ff0000;stroke-width:10.2802;paint-order:markers fill stroke"
   d="m 255.54281,155.46876 c -3.81131,-1.14052 -6.23622,-5.47053 -5.20608,-9.29616 0.66547,-2.47135 3.64237,-5.19186 6.2078,-5.67314 4.5874,-0.8606 9.62438,4.17638 8.76378,8.76378 -0.47725,2.54396 -3.19183,5.52713 -5.65105,6.21018 -2.25262,0.62566 -2.00716,0.62594 -4.11445,-0.005 z"
   id="path354" /><path
   style="fill:#ff0000;stroke-width:10.2802;paint-order:markers fill stroke"
   d="m 198.80104,59.800977 c -2.25622,-1.417564 -3.42637,-3.742707 -3.42637,-6.808328 0,-6.124987 7.68537,-9.463646 12.48603,-5.424152 3.40758,2.867289 3.43066,8.10012 0.05,11.338983 -2.19045,2.098581 -6.51634,2.522873 -9.10968,0.893497 z"
   id="path356" /><path
   style="fill:#ff0000;stroke-width:10.2802;paint-order:markers fill stroke"
   d="m 90.628761,60.613439 c -5.439005,-2.369082 -6.543555,-8.903244 -2.156202,-12.755391 3.419171,-3.002073 7.508003,-2.718958 10.535796,0.729508 2.874085,3.273399 2.740305,7.279057 -0.341281,10.218751 -2.617599,2.497074 -5.148194,3.065989 -8.038313,1.807132 z"
   id="path358" /><g
   id="g1145"
   transform="matrix(2.142836,0,0,2.0711171,86.162755,88.240045)"
   style="fill:#ffffff"><path
     style="fill:#ffffff"
     d="M 54.822,24.938 C 51.086,18.334 43.441,8.828 29.154,0.051 29.042,-0.018 28.896,-0.018 28.785,0.051 14.5,8.828 6.853,18.045 3.116,24.649 -1.279,32.416 1.227,41.8 9.22,45.768 c 2.084,1.034 3.599,1.17 5.396,1.17 0,0 0.44,-0.015 1.164,-0.123 3.212,-0.48 6.165,-2.041 8.45,-4.349 l 0.325,-0.328 c 0.475,-0.48 1.29,-0.103 1.227,0.57 -0.339,3.645 -0.998,9.113 -3.787,12.591 -0.855,1.066 -0.155,2.64 1.212,2.64 h 11.534 c 1.363,0 2.058,-1.57 1.204,-2.633 -2.824,-3.516 -3.462,-9.069 -3.807,-12.715 -0.054,-0.569 0.648,-0.876 1.033,-0.453 v 0 c 1.992,2.194 4.562,3.806 7.428,4.56 1.595,0.42 2.721,0.53 2.721,0.53 1.797,0 3.313,-0.136 5.396,-1.17 7.995,-3.969 10.501,-13.353 6.106,-21.12 z"
     id="path1143" /></g><path
   style="opacity:1;fill:#d40000;stroke-width:10.2802;paint-order:markers fill stroke"
   d="M 135.84925,295.43922 C 101.67656,292.50386 68.589666,276.97471 43.896823,252.28186 21.122671,229.50771 7.0056513,201.29536 1.9153332,168.38338 c -1.27797612,-8.26289 -1.27797612,-31.78075 0,-40.04364 C 7.2051172,94.138089 21.55434,65.97488 45.631031,42.538979 62.483164,26.135354 81.209342,14.814564 103.03059,7.8384402 c 15.96589,-5.1041991 26.69745,-6.718328 45.33053,-6.8181466 16.94346,-0.0907671 25.79008,1.1229586 41.61558,5.7095142 17.30666,5.0158272 36.80694,15.2905372 51.43427,27.1007552 5.68118,4.587032 16.99515,15.965489 21.65649,21.779939 16.99249,21.196026 27.44202,45.686118 31.59725,74.053068 0.99275,6.77735 1.14515,25.30751 0.28352,34.47383 -2.29385,24.40279 -12.98861,51.37571 -28.91626,72.92884 -5.1404,6.95594 -20.81543,22.87551 -27.42944,27.85737 -30.20458,22.75094 -66.76055,33.60732 -102.75328,30.51561 z m -11.29853,-23.32159 c 2.89599,-14.33935 7.76257,-39.91593 7.76257,-40.79659 0,-0.67615 -0.58692,-1.0433 -2.03998,-1.27612 -3.20403,-0.51337 -11.93652,-3.52713 -16.89335,-5.83023 -8.88298,-4.12733 -15.805491,-8.92135 -23.941037,-16.57981 l -4.986041,-4.69365 -8.029473,6.95878 c -21.65753,18.76961 -27.885271,24.47308 -27.885271,25.53781 0,0.83846 14.174494,14.61772 18.223815,17.71568 15.292778,11.69982 34.115767,20.48088 53.855457,25.12397 2.43781,0.57342 2.6362,0.26274 3.93331,-6.15984 z m 63.57266,2.68395 c 16.06319,-5.13014 29.93766,-12.50679 42.9249,-22.82189 5.3343,-4.23676 17.13583,-15.68758 17.13583,-16.62659 0,-0.70439 -11.44187,-11.062 -27.15637,-24.58297 l -8.93257,-7.68569 -4.83686,4.46224 c -12.07997,11.14434 -22.95343,17.43739 -36.94587,21.38256 -2.79811,0.78894 -5.36136,1.71096 -5.6961,2.04895 -0.44929,0.45366 0.36247,5.66985 3.10101,19.92633 3.9331,20.47531 5.15447,25.98181 5.9848,26.98229 0.61456,0.74049 6.15104,-0.44396 14.42123,-3.08523 z m -24.58875,-68.13686 1.14633,-1.53623 -1.50712,-2.54373 c -2.92992,-4.94517 -4.75469,-9.16061 -5.81918,-13.44299 -1.39627,-5.6171 -2.27578,-12.88675 -1.63726,-13.53272 0.29402,-0.29744 1.42494,0.35831 2.82306,1.63691 8.10592,7.41301 19.66187,10.62274 28.53814,7.92666 9.02183,-2.74029 16.62684,-10.09748 19.83948,-19.19294 1.74497,-4.94028 1.78204,-13.85436 0.0801,-19.26323 -2.90017,-9.21699 -14.70124,-24.73827 -27.53341,-36.21317 -9.97583,-8.92066 -28.72846,-22.25311 -31.2999,-22.25311 -1.43109,0 -17.46534,10.753047 -24.8275,16.65007 -15.9669,12.78933 -30.312913,30.31019 -33.767621,41.24054 -1.805142,5.7113 -1.917667,13.00278 -0.281941,18.26862 2.506976,8.0706 8.235227,14.66236 16.149612,18.58409 3.95383,1.9592 5.04064,2.25001 9.28498,2.4845 7.91631,0.43735 15.13123,-2.06238 21.86164,-7.57433 4.46716,-3.65842 4.85336,-3.30079 3.94371,3.65207 -1.13905,8.7062 -3.36676,15.19391 -7.09457,20.66128 -1.48153,2.17289 -1.44084,4.33747 0.10185,5.41801 1.04752,0.73371 3.19211,0.83509 15.03751,0.71084 l 13.81575,-0.14491 z M 45.940477,183.92896 c 12.349404,-4.22408 22.538932,-7.75712 22.6434,-7.85119 0.104475,-0.0941 -0.326407,-2.37042 -0.957501,-5.05855 -3.788529,-16.13704 -3.961253,-28.95165 -0.579082,-42.96314 0.890253,-3.68808 1.61864,-6.9085 1.61864,-7.15648 0,-0.24797 -2.082683,-1.20447 -4.62818,-2.12553 C 53.207157,114.8551 24.49989,105.114 23.781189,105.114 c -0.430569,0 -1.130541,0.67319 -1.555495,1.49598 -1.029422,1.99316 -4.412825,15.55619 -5.326367,21.35179 -0.987133,6.26245 -0.996864,33.93602 -0.01412,40.15367 1.368703,8.65953 5.356528,23.49368 6.315745,23.49368 0.157337,0 10.390124,-3.45607 22.739527,-7.68016 z m 228.575943,5.29112 c 1.4582,-3.81823 3.94816,-14.23781 4.95401,-20.73072 1.24367,-8.02806 1.66578,-24.52975 0.83652,-32.70248 -1.43216,-14.11468 -5.47898,-30.67288 -7.49643,-30.67288 -0.74625,0 -27.84524,9.22968 -40.26625,13.71434 -5.16013,1.86309 -5.11777,1.7666 -3.40493,7.75609 3.567,12.47314 3.57357,28.55264 0.0176,43.16338 -0.60536,2.48732 -1.10066,4.94682 -1.10066,5.46554 0,0.71397 1.61922,1.52156 6.66393,3.32367 11.38757,4.06795 37.64033,13.01404 38.27771,13.0438 0.33334,0.0156 1.01666,-1.04677 1.51847,-2.36074 z M 90.69771,87.633645 c 10.66954,-9.753816 21.53168,-15.982084 34.67965,-19.885022 5.28938,-1.570136 6.93593,-2.274267 6.93593,-2.966092 0,-0.95329 -7.12582,-37.744443 -8.30894,-42.899687 -0.61181,-2.665846 -0.85119,-3.010978 -2.19616,-3.166356 -1.97381,-0.228025 -16.21851,3.678139 -22.181991,6.082718 -7.282384,2.936381 -19.501675,9.231429 -24.508991,12.626369 -9.837596,6.669847 -26.57907,21.591083 -26.57907,23.689226 0,0.443448 3.855561,4.242607 8.567913,8.442582 12.942439,11.535196 26.893275,23.59136 27.271439,23.567685 0.184952,-0.01159 3.029053,-2.48272 6.32022,-5.491423 z m 126.52531,1.235928 c 2.81674,-2.352101 10.24002,-8.778036 16.49617,-14.279855 6.25615,-5.501818 12.07009,-10.571847 12.91987,-11.266724 0.84978,-0.694877 1.54505,-1.570566 1.54505,-1.945977 0,-1.203261 -14.22062,-14.688842 -20.07387,-19.036291 -13.97343,-10.37863 -30.64218,-18.328142 -46.79492,-22.317003 -8.66165,-2.138963 -8.05034,-2.086451 -8.3896,-0.720679 -0.96304,3.876865 -8.51676,43.840998 -8.51676,45.059203 0,1.375196 0.275,1.538541 4.48796,2.665828 6.16993,1.650931 15.49116,5.521707 21.32883,8.857112 5.35949,3.062194 13.60462,9.494934 18.22818,14.221381 1.63536,1.671755 3.12512,3.039553 3.31056,3.039553 0.18545,0 2.64179,-1.924446 5.45853,-4.276548 z"
   id="path386" /><path
   style="opacity:1;fill:#d40000;stroke-width:10.2802;paint-order:markers fill stroke"
   d=""
   id="path388" /><path
   style="opacity:1;fill:#d40000;stroke-width:10.2802;paint-order:markers fill stroke"
   d="m 34.862905,154.37369 c -3.994877,-2.71459 -4.428343,-7.68066 -0.97209,-11.13691 3.08061,-3.08061 7.135971,-2.74242 10.297871,0.85879 5.263183,5.99443 -2.705413,14.77678 -9.325781,10.27812 z"
   id="path390" /><path
   style="opacity:1;fill:#d40000;stroke-width:10.2802;paint-order:markers fill stroke"
   d="m 90.436556,60.097611 c -2.318416,-1.164813 -4.362799,-4.095086 -4.362799,-6.253326 0,-5.568957 6.629039,-9.63422 10.741829,-6.587435 2.196902,1.627482 3.946024,4.466057 3.946024,6.403839 0,2.244325 -2.192451,5.383481 -4.536951,6.496019 -2.388519,1.133426 -3.435814,1.122733 -5.788103,-0.0591 z"
   id="path392" /><path
   style="opacity:1;fill:#d40000;stroke-width:10.2802;paint-order:markers fill stroke"
   d="m 199.33736,59.598866 c -3.97957,-1.961335 -4.90164,-7.680812 -1.77746,-11.02526 4.22445,-4.522286 11.74465,-2.170613 12.36779,3.867579 0.59953,5.80953 -5.27278,9.778447 -10.59033,7.157681 z"
   id="path394" /><path
   style="opacity:1;fill:#d40000;stroke-width:10.2802;paint-order:markers fill stroke"
   d="m 254.83073,154.80078 c -2.67936,-1.32061 -4.19864,-3.78734 -4.19864,-6.817 0,-2.17152 0.27911,-2.84173 1.86476,-4.47771 2.76604,-2.85383 4.92724,-3.40288 7.79893,-1.98129 2.88786,1.42959 4.28323,3.32508 4.61507,6.26917 0.22692,2.01325 0.0351,2.54991 -1.56159,4.36842 -1.71064,1.94832 -4.46351,3.55865 -6.03577,3.53073 -0.38361,-0.007 -1.50085,-0.40836 -2.48276,-0.89232 z"
   id="path396" /><path
   style="opacity:1;fill:#d40000;stroke-width:10.2802;paint-order:markers fill stroke"
   d="m 199.91531,249.55401 c -3.55351,-1.54482 -5.10742,-6.9542 -2.94137,-10.23933 1.63643,-2.48188 3.29682,-3.33115 6.51262,-3.33115 2.68272,0 3.08437,0.16933 4.77356,2.01256 1.55791,1.69997 1.84406,2.41515 1.84234,4.60452 -0.005,5.892 -4.91651,9.24469 -10.18715,6.9534 z"
   id="path398" /><path
   style="opacity:1;fill:#d40000;stroke-width:10.2802;paint-order:markers fill stroke"
   d="m 90.442041,249.69513 c -2.084063,-1.10192 -3.82429,-4.08646 -3.82429,-6.55877 0,-3.08646 1.709221,-5.56346 4.601079,-6.66787 3.035411,-1.15924 5.511841,-0.45299 7.883603,2.2483 1.324267,1.50826 1.659177,2.38425 1.659177,4.3398 0,2.08407 -0.3078,2.78009 -2.060247,4.6588 -1.681772,1.80295 -2.506222,2.25292 -4.487954,2.44944 -1.4139,0.14021 -2.988821,-0.0559 -3.771368,-0.4697 z"
   id="path400" /><path
   style="fill:#ffffff;fill-opacity:1;stroke-width:10.2802;paint-order:markers fill stroke"
   d="M 21.391816,184.37441 C 15.76997,164.077 14.832547,143.1885 18.652649,123.33782 c 1.500466,-7.79698 4.397162,-17.76214 5.092264,-17.5183 0.322008,0.11296 10.384137,3.56766 22.360287,7.67712 l 21.774819,7.47173 -1.467512,5.83998 c -2.018811,8.03387 -2.642527,13.08179 -2.642527,21.38676 0,8.00628 1.08033,16.36239 2.949982,22.81746 0.870439,3.00523 1.073729,4.4331 0.652967,4.58631 -4.809388,1.75121 -43.487927,14.92226 -43.821231,14.92226 -0.251571,0 -1.223518,-2.76603 -2.159882,-6.14673 z m 21.155515,-28.81848 c 7.542509,-3.98857 4.753241,-15.29151 -3.773543,-15.29151 -4.584323,0 -7.704437,2.91345 -8.04832,7.51523 -0.149244,1.99717 0.08154,3.27934 0.836672,4.64831 1.159397,2.10187 4.884562,4.36552 7.184095,4.36552 0.803473,0 2.513967,-0.5569 3.801096,-1.23755 z"
   id="path94" /><path
   style="fill:#ffffff;fill-opacity:1;stroke-width:10.2802;paint-order:markers fill stroke"
   d="M 67.092229,77.098948 C 57.69958,68.904861 49.772221,61.958142 49.475875,61.661797 48.797959,60.98388 58.888506,50.839347 65.401964,45.6505 79.797734,34.182332 96.676431,25.631511 113.88971,21.086399 c 3.99943,-1.056037 7.6417,-1.920843 8.09393,-1.921793 0.65094,-0.0014 1.70697,4.616621 5.06891,22.166048 2.33567,12.192276 4.3563,22.556352 4.49028,23.03128 0.18814,0.666899 -0.47053,1.021829 -2.89294,1.55887 -14.62512,3.242356 -30.004811,11.921409 -40.92557,23.095088 -1.635363,1.673235 -3.104148,3.028554 -3.263967,3.011826 -0.159819,-0.01675 -7.975475,-6.734679 -17.368124,-14.92877 z M 97.27085,60.720541 c 3.91202,-1.856373 5.62668,-8.143745 3.13735,-11.504112 -2.894926,-3.907889 -7.188892,-4.970036 -11.132362,-2.753682 -2.247362,1.263088 -4.299624,4.624678 -4.278126,7.007537 0.0207,2.294401 2.005042,5.867343 3.900383,7.022903 2.19201,1.336433 5.827512,1.435152 8.372755,0.227354 z"
   id="path96" /><path
   style="fill:#ffffff;fill-opacity:1;stroke-width:10.2802;paint-order:markers fill stroke"
   d="m 206.94257,87.382097 c -6.01685,-5.949651 -13.0974,-10.952153 -21.04583,-14.869155 -6.15517,-3.033282 -14.34112,-6.000026 -18.90381,-6.8511 -1.12199,-0.209284 -2.03998,-0.547572 -2.03998,-0.751752 0,-0.853097 8.79456,-45.475191 9.00396,-45.6846 0.12593,-0.125928 3.3535,0.569735 7.17239,1.545919 16.80863,4.296629 32.88302,12.073024 47.11224,22.791746 6.1739,4.650734 18.97951,16.794048 18.74161,17.77231 -0.19219,0.790304 -34.5863,30.765942 -35.13386,30.620358 -0.21165,-0.05628 -2.41967,-2.114452 -4.90672,-4.573726 z m -0.13771,-26.857444 c 2.32984,-1.188594 4.38762,-4.662158 4.38762,-7.40636 0,-2.241077 -1.68529,-5.170966 -3.80769,-6.619692 -3.29363,-2.248202 -9.12525,-1.249119 -11.20108,1.918989 -4.84865,7.399983 2.78692,16.103787 10.62115,12.107063 z"
   id="path98" /><path
   style="fill:#ffffff;fill-opacity:1;stroke-width:10.2802;paint-order:markers fill stroke"
   d="m 250.36008,183.05537 c -11.81828,-4.07702 -21.5585,-7.46099 -21.64495,-7.51992 -0.0864,-0.0589 0.3442,-1.91322 0.95698,-4.12062 2.21835,-7.99111 2.91634,-13.47473 2.93436,-23.05327 0.0182,-9.6976 -0.77163,-15.88127 -2.97726,-23.30787 -0.60831,-2.04824 -1.01693,-3.81316 -0.90805,-3.92203 0.10887,-0.10888 10.10172,-3.60625 22.20632,-7.77192 14.95333,-5.14603 22.12281,-7.37645 22.36537,-6.95785 0.85932,1.48298 3.31669,10.99221 4.53324,17.54213 3.33132,17.93585 3.07623,35.22762 -0.78152,52.97725 -1.70184,7.83022 -3.4963,13.30551 -4.4029,13.43419 -0.43659,0.062 -10.46331,-3.22307 -22.28159,-7.30009 z m 11.41881,-27.81518 c 2.09447,-1.12327 4.35703,-4.83652 4.35703,-7.15062 0,-2.3141 -2.26256,-6.02735 -4.35703,-7.15063 -2.01508,-1.0807 -5.11933,-1.30992 -7.16744,-0.52925 -3.59177,1.36908 -5.84685,5.95093 -4.81497,9.78303 0.58785,2.18312 2.75883,4.77505 4.64356,5.54394 1.91208,0.78006 5.3984,0.54421 7.33885,-0.49647 z"
   id="path100" /><path
   style="fill:#ffffff;fill-opacity:1;stroke-width:10.2802;paint-order:markers fill stroke"
   d=""
   id="path102" /><path
   style="fill:#ffffff;fill-opacity:1;stroke-width:10.2802;paint-order:markers fill stroke"
   d="M 115.17746,275.95169 C 98.196614,271.47597 81.944115,263.45995 67.327519,252.35125 62.694431,248.83008 48.949068,235.75121 49.203695,235.10623 c 0.08274,-0.20958 8.038183,-7.22604 17.678768,-15.59214 l 17.528335,-15.21109 4.921087,4.73719 c 6.369097,6.13109 12.830255,10.69233 20.790425,14.67695 5.49227,2.74926 15.268,6.30011 20.08673,7.29612 l 1.43172,0.29593 -0.75496,3.94972 c -6.2406,32.64914 -8.23379,42.03924 -8.94691,42.14963 -0.42762,0.0662 -3.47027,-0.58939 -6.76143,-1.45685 z M 96.949649,250.57065 c 5.368851,-2.14819 6.525161,-9.37503 2.16795,-13.5495 -2.247819,-2.15355 -7.180822,-2.57889 -9.963521,-0.85909 -5.171704,3.19629 -4.760175,11.36747 0.719149,14.27919 2.330071,1.2382 4.218935,1.27274 7.076422,0.1294 z"
   id="path104" /><path
   style="fill:#ffffff;fill-opacity:1;stroke-width:10.2802;paint-order:markers fill stroke"
   d="m 173.44029,276.06427 c -2.77455,-13.69789 -8.52409,-44.34413 -8.35173,-44.5165 0.12646,-0.12645 2.82434,-0.95842 5.99529,-1.84881 14.04299,-3.9432 25.64039,-10.64574 36.30067,-20.97941 l 4.62395,-4.48229 17.40782,15.17845 c 9.57431,8.34815 17.49824,15.44756 17.60874,15.77646 0.1105,0.3289 -2.72806,3.46651 -6.30792,6.97246 -16.55774,16.2159 -36.63492,27.71756 -58.42857,33.4721 -3.99943,1.05604 -7.55824,1.92084 -7.90846,1.9218 -0.35022,10e-4 -0.77313,-0.67147 -0.93979,-1.49426 z m 34.29431,-26.30199 c 3.35431,-2.06132 4.53297,-7.69563 2.35662,-11.26526 -1.15556,-1.89534 -4.7285,-3.87969 -7.0229,-3.90039 -0.72833,-0.007 -2.33565,0.47767 -3.57182,1.0761 -3.90606,1.89089 -5.77136,7.0964 -3.85955,10.77085 2.43572,4.68138 7.58264,6.09331 12.09765,3.3187 z"
   id="path106" /></svg>
